<svg xmlns="http://www.w3.org/2000/svg" width="228" height="228" preserveAspectRatio="xMidYMid meet" version="1.0" viewBox="0 0 228 228"><g fill="#56a4ff"><path d="M104.5 227.4 c-27.6 -3 -52.6 -14.6 -70.5 -32.8 -5.4 -5.6 -5.4 -5.6 -2.3 -5.6 1.7 0 4.8 0.7 6.9 1.6 11.7 4.9 21 7.6 31.1 8.9 10 1.4 12.8 1.4 24.5 0 12.5 -1.4 23.9 -4.4 31.8 -8.4 13.1 -6.7 24.3 -14.4 31.5 -21.6 16.3 -16.4 22.6 -26 29.1 -44.2 4.3 -12.2 5.7 -20.1 5.8 -32.3 0.2 -19 -3.2 -34.7 -11 -50.2 -4.2 -8.3 -13.7 -23.2 -15.5 -24.4 -1.1 -0.7 -1.2 -5.4 -0.1 -5.4 1.3 0 12.3 6.8 17.9 11.1 7 5.5 19.1 18.3 24 25.5 8.6 12.6 15 28.2 17.9 43.1 2.1 10.7 2.3 29.9 0.5 40.3 -8.2 46.6 -44.6 83.7 -90.5 92.5 -7.9 1.5 -24.9 2.5 -31.1 1.9z"/><path d="M28.2 131.8 c-1.6 -1.6 -1.6 -9 0 -10.6 0.7 -0.7 3.3 -1.2 6 -1.2 5.2 0 6.8 1.5 6.8 6.5 0 5 -1.6 6.5 -6.8 6.5 -2.7 0 -5.3 -0.5 -6 -1.2z"/><path d="M43.1 113.9 c-1.7 -4.8 -1.4 -15 0.5 -17.7 1.2 -1.7 2.5 -2.2 5.9 -2.2 6.3 0 7.9 2.7 7.3 11.8 -0.7 9.7 -1.7 11.2 -7.7 11.2 -4.6 0 -5 -0.2 -6 -3.1z"/></g><g fill="#55d1ff"><path d="M65.4 202.5 c-8.7 -1.2 -19.4 -4.4 -29.9 -9 -11.8 -5.1 -27.2 -31.5 -32.7 -55.9 -2.8 -12.2 -2.9 -33.5 -0.4 -45.6 9.7 -45.6 44 -79.9 89.6 -89.6 12.1 -2.5 33.4 -2.4 45.6 0.4 10.3 2.3 23.7 7.2 28.5 10.5 6.6 4.4 20.4 27.8 24.8 42 4.5 14.7 6.3 38.2 4 52.7 -1.6 10.1 -7.6 27.7 -12.6 37 -8.5 15.8 -24.6 32.5 -40.3 41.7 -5.8 3.3 -11.8 6.8 -13.5 7.6 -15.8 7.8 -41.6 11.2 -63.1 8.2z m-28.5 -74.4 c1.3 -2.4 -0.8 -5.5 -3.4 -5 -2.8 0.6 -4.2 3.4 -2.6 5.3 1.8 2.2 4.8 2 6 -0.3z m15 -16 c2.1 -3.8 2.4 -9.9 0.7 -12.6 -4.5 -6.8 -9.7 2.2 -6.5 11.4 1.2 3.5 4.2 4.2 5.8 1.2z"/></g></svg>