<svg xmlns="http://www.w3.org/2000/svg" width="199" height="199" preserveAspectRatio="xMidYMid meet" version="1.0" viewBox="0 0 199 199"><g fill="#ffcb5b"><path d="M74.9 182.5 c-3.1 -0.7 -13.8 -4 -23.7 -7.4 -10 -3.3 -19 -6.1 -20.1 -6.1 -3.7 0 -14.9 -15 -21.1 -28.3 -3.2 -6.9 -8 -21.2 -8 -23.9 0 -1.9 4.6 -0.5 8.4 2.5 13.4 10.7 22.1 13.7 39.7 13.7 17.1 0 27.8 2.7 45.9 11.6 5.8 2.9 10.6 5.1 10.8 5 0.5 -0.6 -7 -7.6 -11.1 -10.4 -5.2 -3.5 -31.3 -16.2 -33.3 -16.2 -0.3 0 -3 -1.1 -6 -2.5 -3 -1.4 -5.7 -2.5 -6 -2.5 -0.3 0 -2.4 -0.8 -4.7 -1.9 -2.3 -1 -7.6 -3.3 -11.7 -5.1 -4.1 -1.7 -9.3 -4 -11.5 -5 -2.2 -1 -7.9 -3.7 -12.7 -5.9 l-8.8 -4 0 -4.3 c0 -4.7 1.8 -14 4.5 -23 1.9 -6.6 2 -6.7 12.5 -4.4 17.3 3.8 33.7 12 63.1 31.7 5.2 3.5 10.6 7.1 12 7.9 1.3 0.8 4.8 2.9 7.7 4.7 7.5 4.6 23.4 12.4 31.7 15.6 15.2 5.8 31.6 8.7 49.1 8.7 5.7 0 10.4 0.3 10.4 0.7 0 0.5 -2 4.8 -4.5 9.8 -5.2 10.5 -14.6 22.7 -23.4 30.4 l-6.2 5.3 -8.2 -1.3 c-4.5 -0.7 -12.7 -1.3 -18.2 -1.3 -8.5 0.1 -11.8 0.6 -22.2 3.7 -13.4 4.1 -23.2 4.7 -34.4 2.2z"/><path d="M189 118.5 c-12 -3.4 -16.9 -4.8 -21.5 -6 -16.9 -4.5 -32.4 -8.7 -43 -11.8 -15.8 -4.7 -49.5 -16.4 -59 -20.6 -13.2 -5.8 -32.2 -15.9 -41.3 -21.8 l-11.2 -7.4 5 -7.2 c2.8 -4 6.9 -9.3 9.3 -11.9 l4.2 -4.7 7.5 2.4 c13.9 4.7 29.3 13 55 30 16.7 11 20.3 13.1 31.5 18.9 22.4 11.6 42 16.6 64.9 16.6 l7.9 0 -0.6 10.3 c-0.7 11.3 -1.4 14.8 -3.1 14.6 -0.6 -0.1 -3.1 -0.7 -5.6 -1.4z"/><path d="M147.8 70.4 c-10.2 -2.4 -20.6 -8.4 -32.1 -18.4 -2.5 -2.1 -14.9 -15.9 -24.7 -27.4 -1.4 -1.6 -5.5 -6.3 -9.2 -10.5 -3.8 -4.2 -6.8 -8.3 -6.8 -9.2 0 -3.8 29.4 -5.5 43.6 -2.5 17.7 3.8 34.3 12.2 47.1 24 10 9.2 16.5 18 22.3 30.1 7 14.5 7 14.1 1.4 14.9 -8.4 1.1 -35.6 0.5 -41.6 -1z"/></g><g fill="#ffc14d"><path d="M82.3 196.5 c-14.5 -2.6 -27.2 -7.9 -39.8 -16.6 -7.3 -5 -17.3 -14.5 -16.3 -15.4 0.8 -0.9 14.6 3 30.8 8.6 25.6 8.9 32.1 9.4 49.6 4.1 11.1 -3.4 12.8 -3.6 25.4 -3.6 14.2 0 28.4 1.8 27.7 3.7 -0.6 2 -17.7 11.5 -26.3 14.6 -16 5.8 -35 7.5 -51.1 4.6z"/><path d="M97 149.7 c-21.8 -10.9 -31 -13.5 -47.2 -13.2 -17.8 0.4 -27.4 -2.8 -42.9 -14.5 -4 -3 -4.8 -4.1 -5.3 -7.9 -0.6 -4.7 -0.8 -22.1 -0.2 -22.1 0.1 0 4.8 2.1 10.2 4.6 15.6 7.2 17.4 8 25.4 11.4 4.1 1.8 9.4 4.1 11.7 5.1 2.3 1.1 4.4 1.9 4.7 1.9 0.3 0 3 1.1 6 2.5 3 1.4 5.7 2.5 6 2.5 0.8 0 8.2 3.3 19.5 8.7 10.8 5.2 16.9 9.2 21.6 14 4.9 5 8.3 13.1 6 14 -0.6 0.1 -7.6 -3 -15.5 -7z"/><path d="M176.7 136.4 c-0.1 -0.1 -4.2 -0.4 -9.2 -0.8 -10.9 -0.7 -13.5 -1.1 -24.9 -4.2 -13.4 -3.5 -31.1 -11.3 -44.8 -19.7 -2.9 -1.8 -6.4 -3.9 -7.7 -4.7 -1.4 -0.8 -6.8 -4.4 -12 -7.9 -28.4 -19 -48.3 -29.1 -62.6 -31.6 -7.4 -1.3 -9 -1.6 -9.2 -1.8 -0.4 -0.5 7.5 -16.5 8.6 -17.1 0.6 -0.4 6.2 2.6 12.3 6.7 9.1 5.9 28.1 16 41.3 21.8 10 4.4 44.9 16.4 62 21.4 3.3 0.9 7.1 2.1 8.5 2.5 1.4 0.4 5.2 1.5 8.5 2.4 16.2 4.2 30.8 8.2 37.5 10.1 2.5 0.8 6 1.7 7.8 2 4 0.8 4.1 2.5 0.7 13.2 l-2.4 7.8 -7.1 0 c-3.9 0.1 -7.2 0 -7.3 -0.1z"/><path d="M168.5 96.8 c-14.4 -1.9 -30.1 -7.2 -46 -15.4 -11.2 -5.8 -14.9 -7.9 -31.5 -18.9 -26.1 -17.2 -41.2 -25.5 -54.2 -29.6 -4.3 -1.3 -7.8 -2.7 -7.8 -3 0 -1.3 13.7 -11.8 20.5 -15.9 7 -4.1 19.4 -9.2 25.1 -10.4 2.8 -0.6 3.5 -0.1 11.5 9 4.6 5.3 8.9 10.1 9.4 10.8 0.6 0.6 5.3 6.1 10.6 12.1 9.7 11 11.5 12.9 19.9 19.6 6.3 5.1 17.8 10.6 25.8 12.5 5.1 1.2 10.7 1.5 24.2 1.3 l17.5 -0.4 1.7 7 c1 3.8 2.1 10.5 2.4 14.8 l0.7 7.8 -11.9 -0.2 c-6.5 -0.2 -14.6 -0.6 -17.9 -1.1z"/></g></svg>