<svg xmlns="http://www.w3.org/2000/svg" xmlns:xlink="http://www.w3.org/1999/xlink" viewBox="0 0 520 207.75"><defs><style>.cls-1{fill:none;}.cls-2{isolation:isolate;}.cls-3{clip-path:url(#clip-path);}.cls-4{fill:#f091d3;}.cls-5{clip-path:url(#clip-path-2);}.cls-11,.cls-6{opacity:0.43;}.cls-18,.cls-6{mix-blend-mode:overlay;}.cls-7{clip-path:url(#clip-path-3);}.cls-8{fill:#dcb6ff;}.cls-9{clip-path:url(#clip-path-4);}.cls-10{clip-path:url(#clip-path-5);}.cls-12{clip-path:url(#clip-path-6);}.cls-13{fill:#d874cf;}.cls-14{clip-path:url(#clip-path-7);}.cls-15{clip-path:url(#clip-path-8);}.cls-16{clip-path:url(#clip-path-9);}.cls-17{clip-path:url(#clip-path-10);}.cls-19{clip-path:url(#clip-path-11);}</style><clipPath id="clip-path" transform="translate(-753.57 -384.25)"><rect class="cls-1" width="1366" height="768"/></clipPath><clipPath id="clip-path-2" transform="translate(-753.57 -384.25)"><path class="cls-1" d="M913.22,491.5A100.5,100.5,0,1,0,1013.72,391a100.5,100.5,0,0,0-100.5,100.5"/></clipPath><clipPath id="clip-path-3" transform="translate(-753.57 -384.25)"><rect class="cls-1" x="924.52" y="557.22" width="172.5" height="17.56"/></clipPath><clipPath id="clip-path-4" transform="translate(-753.57 -384.25)"><rect class="cls-1" x="911.77" y="442.46" width="206.98" height="31.08"/></clipPath><clipPath id="clip-path-5" transform="translate(-753.57 -384.25)"><rect class="cls-1" x="907.53" y="384.25" width="212.96" height="21.41"/></clipPath><clipPath id="clip-path-6" transform="translate(-753.57 -384.25)"><rect class="cls-1" x="911.22" y="424.31" width="221.78" height="13.84"/></clipPath><clipPath id="clip-path-7" transform="translate(-753.57 -384.25)"><rect class="cls-1" x="896" y="432.86" width="220.09" height="25.3"/></clipPath><clipPath id="clip-path-8" transform="translate(-753.57 -384.25)"><rect class="cls-1" x="913.67" y="556" width="200.33" height="7.15"/></clipPath><clipPath id="clip-path-9" transform="translate(-753.57 -384.25)"><rect class="cls-1" x="992.36" y="492.16" width="191.91" height="11.79"/></clipPath><clipPath id="clip-path-10" transform="translate(-753.57 -384.25)"><path class="cls-1" d="M1113.4,479.88c78.45,3.14,132.67,9.85,132.67,17.62s-55.21,14.6-134.81,17.7c-29.7,1.16-62.8,1.8-97.69,1.8s-68-.64-97.69-1.8c-79.6-3.1-134.81-9.86-134.81-17.7S835.29,483,913.74,479.88a99.49,99.49,0,0,1,3.93-18.51c-104.59,5.38-179.1,19.3-179.1,35.63,0,16.55,76.54,30.63,183.37,35.84,28.66,1.4,59.5,2.16,91.63,2.16s63-.76,91.63-2.16c106.83-5.21,183.37-19.29,183.37-35.84,0-16.33-74.51-30.25-179.1-35.63a99.49,99.49,0,0,1,3.93,18.51"/></clipPath><clipPath id="clip-path-11" transform="translate(-753.57 -384.25)"><rect class="cls-1" x="769.07" y="469" width="489" height="54"/></clipPath></defs><title>Layer 2</title><g class="cls-2"><g id="Layer_2" data-name="Layer 2"><g id="Layer_2-2" data-name="Layer 2"><g class="cls-3"><path class="cls-4" d="M1114.22,491.5A100.5,100.5,0,1,1,1013.72,391a100.5,100.5,0,0,1,100.5,100.5" transform="translate(-753.57 -384.25)"/></g><g class="cls-5"><g class="cls-6"><g class="cls-7"><path class="cls-8" d="M954.62,559c32.38,4,21.38-1,56.38,3,12.28,1.4,35.45.91,51.26-.72,48.24-5,43.17,9.16,3.87,11.29s-39.57,4.12-86.53-1.15-53.32-10.14-53.32-10.14c.43.05-13-7.37,28.34-2.27" transform="translate(-753.57 -384.25)"/></g></g><g class="cls-6"><g class="cls-9"><path class="cls-8" d="M941.86,457.77c32.38,4,25.14-4.77,60.14-.77,12.28,1.4,82.19-12.37,98-14,48.24-5-7.32,26.21-46.63,28.34s-39.57,4.11-86.53-1.15S913.53,460,913.53,460c.43,0-13-7.37,28.33-2.27" transform="translate(-753.57 -384.25)"/></g></g><g class="cls-6"><g class="cls-10"><path class="cls-8" d="M1090.39,389.89c-32.38,4-25.13-4.77-60.13-.77C1018,390.52,940.81,386.63,925,385c-48.24-5,14.58,16.33,53.88,18.46s39.57,4.11,86.53-1.15,53.32-10.15,53.32-10.15c-.43,0,13-7.37-28.34-2.27" transform="translate(-753.57 -384.25)"/></g></g><g class="cls-11"><g class="cls-12"><path class="cls-13" d="M911.22,424.31c92.84,14.69,123,11.69,151.86,6.69s49.37.21,64.69,4.11-5.1-1.72-34.55,0C1026.36,439,975.59,440,932,433" transform="translate(-753.57 -384.25)"/></g></g><g class="cls-11"><g class="cls-14"><path class="cls-13" d="M934.24,449c51.91,0,65.92,6.47,100.61-1.53,15.2-3.5,16.74-6.76,36.55-10.47,60.46-11.31,56.42,3.37,6.83,10.69S1028.65,457,968.08,458s-69.47-3-69.47-3c.56,0-17.81-6,35.63-6" transform="translate(-753.57 -384.25)"/></g></g><g class="cls-11"><g class="cls-15"><path class="cls-13" d="M923.6,556.16c98.73,2.13,46.57,6.91,156.48,3.19,66.31-2.24,22.92,3.26-24.22,3.72-54,.53-109.9-1.62-132.26-4.78s0-2.13,0-2.13" transform="translate(-753.57 -384.25)"/></g></g><g class="cls-11"><g class="cls-16"><path class="cls-13" d="M1018.78,494.41c64.7-8.46,32.8,10.4,131.6-.14,66.09-7,23.15,5.59-23.91,8.35-53.94,3.16-69.3-.4-89.29.37-.23,0-87.05.39-18.4-8.58" transform="translate(-753.57 -384.25)"/></g></g></g><g class="cls-17"><path class="cls-8" d="M1273.57,496.5c0,18-116.4,32.5-260,32.5s-260-14.55-260-32.5S870,464,1013.57,464s260,14.55,260,32.5" transform="translate(-753.57 -384.25)"/><g class="cls-18"><g class="cls-19"><path class="cls-8" d="M1258.07,496c0,14.91-109.46,27-244.5,27s-244.5-12.09-244.5-27,109.47-27,244.5-27,244.5,12.09,244.5,27" transform="translate(-753.57 -384.25)"/></g></g></g></g></g></g></svg>