<?xml version="1.0" encoding="utf-8"?>
<!DOCTYPE svg PUBLIC "-//W3C//DTD SVG 20010904//EN" "http://www.w3.org/TR/2001/REC-SVG-20010904/DTD/svg10.dtd">
<svg version="1.0" xmlns="http://www.w3.org/2000/svg" width="324px" height="324px" viewBox="0 0 324 324" preserveAspectRatio="xMidYMid meet">
 <g fill="#e73d3c">
  <path d="M147 322.9 c-26.2 -2.5 -52.6 -12 -74.5 -26.7 -9.4 -6.3 -20.5 -15.7 -20.5 -17.3 0 -2.3 6.5 -0.4 15.5 4.6 10.5 5.8 19.3 9.5 22.5 9.5 1.7 0 1.7 -0.4 -0.8 -6.2 -3.6 -8.7 -3.8 -20.6 -0.4 -24 2 -2.1 3.4 -2.3 13.5 -2.6 13 -0.4 21.5 1.2 54.4 10.4 48.6 13.6 66 16.8 89.1 16.7 11.8 -0.1 16.2 0.2 16.2 1 0 0.7 -4.2 4 -9.3 7.4 -32 21.4 -68.5 30.8 -105.7 27.2z"/>
  <path d="M240.2 274.1 c-5.7 -1.5 -7.2 -3.7 -7.2 -10.3 0 -6.8 0.5 -8.1 7.2 -16.6 2.7 -3.5 4.8 -6.6 4.5 -6.8 -0.2 -0.2 -4.6 0.9 -9.8 2.5 -26.8 8.2 -45.6 11.3 -69.9 11.3 -25.2 0 -39.5 -2.6 -62.8 -11.3 -15 -5.7 -32.7 -10.7 -46 -13 -18.9 -3.2 -27.4 -2.4 -32.7 3.1 -1.6 1.6 -3.4 3 -3.9 3 -1.9 0 -9.5 -18.8 -13.1 -32.3 -4.8 -17.8 -7.5 -51.7 -4.1 -51.7 0.7 0 4.6 1.5 8.7 3.4 31.3 14.3 74.2 12 121.9 -6.6 30 -11.7 45.5 -14.3 80.3 -13.5 19.2 0.4 26.7 1 43.7 3.6 31.4 4.9 51.8 7.8 59.3 8.6 l6.7 0.7 0 14.1 c0 7.8 -0.3 16.6 -0.6 19.5 -0.7 5.1 -0.8 5.2 -3.9 5.2 -1.7 0 -9.7 -2.8 -17.6 -6.3 -32.1 -14.1 -39.6 -16.2 -59.4 -16.2 -16 0.1 -25.1 1.5 -48 7.5 -30.4 7.9 -55.1 11.6 -107.9 16 -13.1 1.1 -24.1 2.1 -24.3 2.4 -1 1 53 13.9 67.6 16.1 11.3 1.7 15 1.1 26 -4.5 10.5 -5.2 25.4 -11.4 35.2 -14.5 6.2 -1.9 10.1 -2.5 17.5 -2.5 11.4 0 15.8 1.3 36.6 11.1 8.1 3.9 18.4 7.9 22.7 9 7.6 1.9 8.4 1.9 18.6 0.4 14.5 -2.1 32.5 -3.1 32.5 -1.7 0 0.5 -1.6 5.6 -3.6 11.3 -6.3 18.2 -16.4 36.1 -28.8 51 -5.4 6.5 -5.6 6.6 -11.3 7.3 -10.5 1.1 -30.7 1.6 -34.1 0.7z"/>
  <path d="M304.5 126.4 c-1.1 -0.2 -14.4 -1.1 -29.5 -1.9 -15.1 -0.9 -29.1 -1.9 -31 -2.3 -3.2 -0.7 -3.5 -1.1 -3.8 -4.9 -0.3 -3.8 -0.1 -4.2 4.8 -7.7 4 -2.9 4.9 -4 4.1 -5 -3.6 -4.3 -32.5 -12.7 -54.8 -16 -19.4 -2.8 -38.6 -1.7 -55.3 3.1 -3 0.8 -12.5 4.3 -21 7.5 -23 8.9 -31.5 10.9 -49.5 11.5 -10.8 0.4 -17.9 0 -25.4 -1.1 -12.4 -1.9 -30.1 -6.5 -30.1 -7.8 0 -2.4 12.7 -25.3 18.8 -33.8 3.7 -5.2 11.8 -14.5 18.1 -20.8 10.1 -10 11.7 -11.3 14 -10.7 4.5 1 7.6 3.9 7.9 7.5 0.6 6.1 -0.4 7.7 -8.9 12.9 l-8 4.9 5.2 1.1 c14.2 3.1 83.9 3.7 103.7 1 13.4 -1.9 13.4 -1.8 -3.3 -10 l-15 -7.4 -0.3 -5.2 -0.3 -5.2 3.8 -0.8 c2.1 -0.4 17.3 -0.8 33.8 -0.8 27.1 0 30.4 0.2 32.8 1.8 3.4 2.2 3.7 7.2 0.7 11 l-2.1 2.6 5.3 1.5 c9.7 2.7 28.5 4.5 50.6 4.7 l14.3 0.2 7.4 10.1 c9.3 12.5 19.1 31.6 23.9 46.4 2 6.1 3.6 11.8 3.6 12.7 0 1.2 -1.3 1.5 -6.2 1.4 -3.5 -0.1 -7.2 -0.3 -8.3 -0.5z"/>
 </g>
 <g fill="#f1604b">
  <path d="M82.5 295.1 c-5.6 -2 -14.7 -6.5 -22.3 -11 -2.8 -1.6 -5.3 -2.7 -5.6 -2.4 -0.8 0.9 -14.8 -13.6 -20.9 -21.8 -6.7 -9 -15.7 -23.8 -15.7 -26 0 -2.3 5.2 -6.8 9.1 -7.9 13.2 -3.8 47.2 2.2 78.1 13.9 22.4 8.3 37.5 11.2 59.7 11.2 20.9 0 42.3 -3.5 65.1 -10.7 14.2 -4.4 19.2 -5.5 20.6 -4.3 1.7 1.4 0.8 3.2 -6.6 12.9 -7 9.2 -8 11.1 -8 14.9 0 7.2 8.4 9.1 30.6 6.8 8.2 -0.9 15.1 -1.4 15.3 -1.1 0.6 0.6 -9 10.5 -15.9 16.3 l-5.6 4.7 -16.9 -0.1 c-24.2 -0.2 -41.7 -3.5 -89.8 -16.9 -30.8 -8.6 -41.8 -10.8 -51.4 -10.4 -7 0.2 -8.6 0.6 -10.5 2.6 -3.3 3.2 -2.9 9.7 1.1 19.5 1.7 4.3 3.1 7.9 3.1 8.2 0 0.2 -0.7 1.1 -1.6 1.9 -2 2 -5.6 1.9 -11.9 -0.3z"/>
  <path d="M125 209.5 c-16.9 -2.8 -61.7 -13.8 -69.3 -17 -2.1 -0.9 -3.7 -2.1 -3.5 -2.7 0.7 -2 5.4 -2.7 30.3 -4.8 53.1 -4.4 77.6 -8.1 108 -16 24.2 -6.4 31.7 -7.5 51 -7.5 15.8 0 19 0.3 26 2.3 10.5 3 18.9 6.2 36.4 13.9 7.9 3.5 15.3 6.3 16.4 6.3 2.1 0 2.1 0.6 -0.9 14.6 l-1.5 7.1 -9.9 0.7 c-5.5 0.4 -14.3 1.3 -19.6 2.1 -5.4 0.8 -11.4 1.5 -13.4 1.5 -6.9 0 -19 -3.9 -33.8 -10.9 -8.2 -3.8 -17.6 -7.9 -21 -9 -14 -4.7 -27.1 -1.7 -60.3 14 -14.7 6.9 -20.4 7.8 -34.9 5.4z"/>
  <path d="M40 166.9 c-11.1 -1.3 -23.6 -4.7 -31.8 -8.5 l-7.3 -3.3 0.6 -6.3 c1.2 -11.7 4.6 -28.1 8 -38.1 1.9 -5.5 3.8 -10.4 4.2 -10.8 0.4 -0.4 5.5 0.5 11.2 2.1 23.6 6.7 46 7.6 65.1 2.7 5.2 -1.4 16.5 -5.2 25 -8.5 25.8 -9.9 36.6 -12.2 57.7 -12.2 16.2 0 30.7 2 50.9 7 16.6 4.1 26.5 8.1 29.4 11.8 2.5 3.1 1.5 5.1 -5.1 9.9 -8.7 6.2 -7.4 6.6 29.1 8.8 14.6 0.8 29.9 1.8 34.2 2.1 l7.6 0.7 1.1 4.1 c1.5 6.1 3.4 21.6 2.7 22.3 -0.9 0.9 -20.4 -1.4 -48.9 -5.8 -37.1 -5.7 -49.1 -6.9 -67.7 -6.9 -26.6 0 -43 3.3 -70.3 13.9 -16.7 6.5 -33.1 11.2 -47.7 13.6 -11.7 1.9 -37.9 2.7 -48 1.4z"/>
  <path d="M81 68.1 c-18.1 -0.9 -23.8 -1.6 -28.8 -3.7 -4.6 -1.9 -3.3 -3.8 7.2 -10.2 11.4 -7 12.2 -10.3 3.2 -14.2 l-3.9 -1.6 7.6 -5.6 c42.8 -31.3 96.3 -39.7 147.2 -23.3 11.6 3.7 30.6 13.3 41 20.6 4.9 3.5 14.1 11.3 20.3 17.4 11.2 10.8 11.3 11 8.6 11.7 -3.3 0.9 -40.9 -0.7 -53.8 -2.3 -12 -1.4 -19 -3.8 -19.4 -6.4 -0.1 -1.1 0.9 -3.6 2.3 -5.5 l2.6 -3.5 -2.1 -1.7 c-1.1 -0.9 -4.8 -1.9 -8.3 -2.3 -7.9 -0.9 -51.4 0 -54.5 1 -1.6 0.5 -2.2 1.4 -2 2.9 0.2 1.6 3.6 3.7 14.5 9.1 15.5 7.7 17.3 8.9 17.3 11.5 0 2.2 -3.7 3.6 -13.5 5 -9.4 1.3 -64.9 2 -85.5 1.1z"/>
 </g>
</svg>