<?xml version="1.0" encoding="utf-8"?>
<!-- Generator: Adobe Illustrator 22.0.0, SVG Export Plug-In . SVG Version: 6.00 Build 0)  -->
<svg version="1.1" id="Layer_1" xmlns="http://www.w3.org/2000/svg" xmlns:xlink="http://www.w3.org/1999/xlink" x="0px" y="0px"
	 viewBox="0 0 200 200" style="enable-background:new 0 0 200 200;" xml:space="preserve">
<style type="text/css">
	.st0{clip-path:url(#SVGID_2_);}
	.st1{fill:#FFCF5F;}
	.st2{fill:#E5B75C;}
</style>
<g>
	<defs>
		<circle id="SVGID_1_" cx="100" cy="100" r="100"/>
	</defs>
	<clipPath id="SVGID_2_">
		<use xlink:href="#SVGID_1_"  style="overflow:visible;"/>
	</clipPath>
	<g class="st0">
		<circle class="st1" cx="100" cy="100" r="100"/>
		<path class="st2" d="M183.8,183.8c-94.9-25.4-60.1,16.2-128.3-9.2c-73.4-27.4-50.9,14.8-15.8,25.4
			C100.6,218.5,183.8,183.8,183.8,183.8"/>
		<path class="st2" d="M-19.7,80.9c75.1,43.9,129.5,47.4,135.3,77.5c1.6,8.2-32.1-22.6-64.7-19.7C0,143.4-19.7,80.9-19.7,80.9"/>
		<path class="st2" d="M-8.1-25.5C92.5-40.5,97.4,72.3,168.8,70.5c71.4-1.8,33-16.6,106.7,17.1c73.6,33.8,28.5,3.2-75.5,11.8
			C116.5,106.3,81.6,37,17.2,29.2C-71.7,18.5-8.1-25.5-8.1-25.5"/>
		<path class="st2" d="M-30.6,23.7c58.1,17.6,36.4,43.4,191.9,84.4c192.5,50.8,52.3,37,138.2,102.3s60.1-85.5-106.9-72.3
			c-87.9,7-126.6-66.2-186.1-70.5C-53.2,63.3-30.6,23.7-30.6,23.7"/>
	</g>
</g>
</svg>
